{"title":"Clear and Present Danger 1994 HDDVD Rip H264 AAC - IceBane (King","uid":5347893,"size":2740596196,"categoryP":"video","categoryS":"movies","magnet":"?xt=urn:btih:a9d0f3f62a7fa6eb1d91eec28cb49aac74ec9373&amp;dn=Clear+and+Present+Danger+1994+HDDVD+Rip+H264+AAC+-+IceBane+%28King&amp;tr=udp%3A%2F%2Ftracker.openbittorrent.com%3A80&amp;tr=udp%3A%2F%2Fopen.demonii.com%3A1337&amp;tr=udp%3A%2F%2Ftracker.coppersurfer.tk%3A6969&amp;tr=udp%3A%2F%2Fexodus.desync.com%3A6969","seeders":0,"leechers":1,"uploader":"IceBane","files":-1,"time":1265704837,"description":"General:\n\nTitle: Clear and Present Danger \nDirector: Phillip Noyce\nRelease Date: 3 August 1994 (USA)\nRuntime: 141 min \nGenre: Action | Thriller  \nColor: Color\nIMDb Rating: 6.8/10   28,308 votes           \nIMDB Link: http://www.imdb.com/title/tt0109444/\nStudio: Paramount Pictures\nLanguage: English\nSubtitles: English, English SDH, French, Spanish\nSample Video: yes\nXbox 360 2 CH. Audio: Yes\n\n\n\nPlot:\n\nJack Ryan is back and this time the bad guys are in his own government. When Admiral James Greer becomes sick with cancer, Ryan is appointed acting CIA Deputy Director of Intelligence. Almost before he can draw a breath in his new position, one of the president's closest friends and his family are murdered in their sleep by what appears to by drug cartels. Ryan is called in to investigate, but unknown to him the CIA has already sent a secret field operative to lead an illegal paramilitary force in Colombia against cartels. Things get even more complicated when his team is set up an he loses and agent in the field and a friend of his wife's, who was the murdered agent's secretary and is murdered that same day. Ryan must then risk not only his career, but his life to expose the truth behind the mystery.\n\n\nVideo:\n\nFormat: H.264/MPEG-4 AVC\nFormat/Info: Advanced Video Codec\nFormat profile: &lt;a class=&quot;__cf_email__&quot; href=&quot;/cdn-cgi/l/email-protection&quot; data-cfemail=&quot;83cbeae4ebc3cfb7adb3&quot;&gt;[email&amp;#160;protected]&lt;/a&gt;&lt;script cf-hash='f9e31' type=&quot;text/javascript&quot;&gt;\n/* &lt;![CDATA[ */!function(){try{var t=&quot;currentScript&quot;in document?document.currentScript:function(){for(var t=document.getElementsByTagName(&quot;script&quot;),e=t.length;e--;)if(t[e].getAttribute(&quot;cf-hash&quot;))return t[e]}();if(t&amp;&amp;t.previousSibling){var e,r,n,i,c=t.previousSibling,a=c.getAttribute(&quot;data-cfemail&quot;);if(a){for(e=&quot;&quot;,r=parseInt(a.substr(0,2),16),n=2;a.length-n;n+=2)i=parseInt(a.substr(n,2),16)^r,e+=String.fromCharCode(i);e=document.createTextNode(e),c.parentNode.replaceChild(e,c)}}}catch(u){}}();/* ]]&gt; */&lt;/script&gt;\nFormat settings, CABAC: Yes\nFormat settings, ReFrames: 3 frames\nCodec ID: avc1\nCodec ID/Info: Advanced Video Coding\nDuration: 2h 21min\nBit rate mode: Variable\nBit rate: 2048 Kbps\nMaximum bit rate: 14.8 Mbps \nScreen Resolution: 1280 x 720\nDisplay aspect ratio: 16:9\nFrame rate mode: Constant\nFrame rate: 23.976 fps\nResolution: 8 bits\nColorimetry: 4:2:0\nScan type: Progressive\nBits/(Pixel*Frame): 0.093\nStream size: 2.02 GiB (89%)\n\n\nAudio:\n\nFormat: mp4a - MPEG-4 AAC LC\nFormat/Info: Advanced Audio Codec\nFormat version: Version 4\nFormat profile: LC\nFormat settings, SBR: No\nCodec ID: 40\nDuration: 2h 21min\nBit rate mode: Variable\nBit rate: 264.6 Kbps\nMaximum bit rate: 273 Kbps\nChannel(s): 6 channels\nChannel positions: Front: L C R, Rear: L R, LFE\nSampling rate: 48.0 KHz\nStream size: 262 MiB (11%)\n\n\nHope you all enjoy and keep seeding.\n\nIceBane\n\n\n","torrent":{"xt":"urn:btih:a9d0f3f62a7fa6eb1d91eec28cb49aac74ec9373","amp;dn":"Clear+and+Present+Danger+1994+HDDVD+Rip+H264+AAC+-+IceBane+%28King","amp;tr":["udp%3A%2F%2Ftracker.openbittorrent.com%3A80","udp%3A%2F%2Fopen.demonii.com%3A1337","udp%3A%2F%2Ftracker.coppersurfer.tk%3A6969","udp%3A%2F%2Fexodus.desync.com%3A6969"],"infoHash":"a9d0f3f62a7fa6eb1d91eec28cb49aac74ec9373","infoHashBuffer":{"type":"Buffer","data":[169,208,243,246,42,127,166,235,29,145,238,194,140,180,154,172,116,236,147,115]},"announce":[],"urlList":[]}}